<svg width="1440" height="1024" viewBox="0 0 1440 1024" fill="none" xmlns="http://www.w3.org/2000/svg">
<path d="M1690.34 -25H1185.63V352.319H1690.34V-25Z" fill="#165016"/>
<path d="M-139.647 421.003V1029.19H1233.86V341.263L-139.647 421.003Z" fill="#071741" stroke="black" stroke-width="0.999999"/>
<path d="M-141 492.634L-2.97258 491.283L51.1558 522.368L93.1053 499.392L189.183 488.58L296.087 521.016L407.05 464.252H554.55L664.16 491.283L716.935 460.198L906.385 448.034L873.908 387.215L1233.86 392.621V234.493L-139.647 238.548L-141 492.634Z" fill="#A0892C"/>
<path d="M1233.86 -25H-139.647V352.076H1233.86V-25Z" fill="#00002B"/>
<path d="M879.023 118.262C880.365 95.2314 891.437 73.3444 953.449 57.4429L1118.54 61.4975C1137.07 21.2831 1179.94 -0.0298605 1263.33 10.1396V352.076H887.142L879.023 118.262Z" fill="#00002B"/>
<path d="M712.876 -23.6485C764.958 31.5166 811.894 78.8621 817.073 119.613H938.862C1171.83 122.91 1205.72 235.911 1233.86 352.076H775.123L826.545 380.458L859.699 413.57L393.518 421.003H247.371L195.949 396.676L125.582 421.003H-139.647V-25L712.876 -23.6485Z" fill="#000055"/>
<path opacity="0.288525" d="M734.527 3.38208L802.187 179.08L826.545 212.869L817.073 119.613C806.059 75.3757 765.328 41.0318 734.527 3.38208Z" fill="#37C871"/>
<path opacity="0.308197" d="M775.123 352.076L734.527 327.748L665.513 318.288L741.293 308.827L775.123 352.076Z" fill="#37C871"/>
<path opacity="0.570492" d="M1086.36 61.4976L1049.82 97.4943L1053.48 131.777L1068.09 106.065L1086.36 61.4976Z" fill="#37C871"/>
<path opacity="0.403279" d="M-141 172.323L-28.6836 199.353L195.949 396.676L166.179 338.56L79.5732 234.493L-11.0919 154.753L-141 172.323Z" fill="#37C871"/>
<path opacity="0.459016" d="M304.206 -22.2969L398.931 31.7641L507.188 173.674L397.578 58.7946L304.206 -22.2969Z" fill="#5FD38D"/>
<path opacity="0.504918" d="M1020.05 127.723L1083.66 175.026L1131.02 254.766L944.274 122.316L1020.05 127.723Z" fill="#5FD38D"/>
<path opacity="0.242623" d="M94.4586 780.509L189.183 769.697L305.559 771.048L190.536 783.212L94.4586 780.509Z" fill="#00CCFF"/>
<path opacity="0.259016" d="M507 735.976L628.789 713L803.353 727.867L635.555 742.734L507 735.976Z" fill="#00CCFF"/>
<path opacity="0.259016" d="M889 660.976L1010.79 638L1185.35 652.867L1017.55 667.734L889 660.976Z" fill="#00CCFF"/>
<path opacity="0.259016" d="M82.7776 638.206L204.566 615.23L379.131 630.097L211.333 644.964L82.7776 638.206Z" fill="#00CCFF"/>
<path opacity="0.259016" d="M528.022 978.915L649.811 955.939L824.375 970.806L656.577 985.672L528.022 978.915Z" fill="#00CCFF"/>
<path d="M1234.19 7.30151L1377.21 15.3296C1428.64 13.8652 1476.06 19.6142 1474.83 112.829H1637.1C1693.79 111.495 1690.52 138.343 1688.01 164.835V1029.19H1233.86L1234.19 7.30151Z" fill="#00002B"/>
<path d="M1474.83 112.828L1395.61 169.011L1335.32 281.404L1585.84 112.815L1474.83 112.828Z" fill="#01113E"/>
<path d="M1195.01 350.981L1690.34 352.319L1693.02 395.135L1193.67 392.621L1195.01 350.981Z" fill="#A0892C"/>
<path d="M1693.02 395.135H1188.31V1030.53H1693.02V395.135Z" fill="#071741"/>
<path opacity="0.259016" d="M1311.05 584.957L1432.84 561.981L1607.4 576.848L1439.6 591.715L1311.05 584.957Z" fill="#00CCFF"/>
<path opacity="0.259016" d="M851.933 795.523L973.722 772.547L1148.29 787.414L980.488 802.281L851.933 795.523Z" fill="#00CCFF"/>
</svg>
