<svg width="399" height="268" viewBox="0 0 399 268" fill="none" xmlns="http://www.w3.org/2000/svg">
<path d="M-51.3425 108.064C-49.134 107.363 -47.0075 106.986 -44.8402 107.575C-42.3647 108.246 -40.7279 109.73 -40.1718 112.37C-37.8622 123.334 -35.1434 134.195 -31.637 144.844C-29.0715 152.635 -26.1163 160.267 -21.905 167.353C-19.615 171.206 -16.9646 174.773 -13.5995 177.772C-9.08751 181.793 -3.78351 183.958 2.21692 184.435C3.97688 184.574 5.74839 184.619 7.51438 184.62C40.6865 184.631 73.8586 184.628 107.031 184.628H108.851C108.96 180.152 108.837 175.755 108.925 171.206C110.442 171.067 111.904 171.163 113.458 171.146C114.939 175.663 116.399 180.112 117.88 184.628H119.269C145.485 184.628 171.701 184.633 197.918 184.622C202.137 184.62 206.356 184.539 210.576 184.507C213.964 184.483 216.488 182.482 217.212 179.176C217.365 178.476 217.449 177.746 217.45 177.03C217.466 168.476 217.452 159.922 217.472 151.368C217.474 150.324 217.205 149.405 216.479 148.495C217.874 147.767 219.228 147.355 220.701 147.502C221.535 147.585 222.22 148.398 222.335 149.354C222.388 149.79 222.366 150.236 222.366 150.677C222.367 161.44 222.367 172.202 222.367 182.966V184.342C222.462 184.434 222.491 184.464 222.52 184.49C222.55 184.516 222.579 184.556 222.612 184.562C222.77 184.588 222.93 184.622 223.089 184.622C238.69 184.624 254.29 184.623 269.891 184.62C270.046 184.62 270.201 184.577 270.483 184.534C270.501 184.063 270.534 183.596 270.534 183.13C270.537 175.178 270.526 167.227 270.553 159.275C270.556 158.533 270.674 157.742 270.952 157.061C271.37 156.036 272.215 155.34 273.363 155.336C274.509 155.332 275.364 156.013 275.786 157.041C276.066 157.723 276.198 158.512 276.202 159.254C276.232 166.201 276.219 173.149 276.219 180.097C276.219 181.181 276.214 182.266 276.223 183.35C276.227 183.74 276.266 184.129 276.296 184.628H277.939C291.57 184.628 305.201 184.579 318.831 184.644C328.902 184.693 336.606 180.324 342.369 172.304C345.965 167.3 347.811 161.623 348.488 155.518C348.914 151.691 349.508 147.883 350.033 144.067C350.878 137.946 351.726 131.825 352.575 125.705C353.425 119.584 354.289 113.465 355.115 107.341C355.248 106.359 355.194 105.353 355.258 104.36C355.334 103.201 355.421 102.04 355.543 100.885C356.162 95.0186 356.832 89.1577 357.406 83.2878C357.793 79.3198 359.38 75.8555 361.713 72.7197C365.364 67.813 370.173 64.6254 376.258 63.6225C383.299 62.4624 389.21 64.655 393.827 70.08C399.541 76.7952 400.631 86.9224 396.549 94.7339C394.477 98.6989 391.342 101.443 386.955 102.575C380.933 104.129 374.985 101.489 372.055 96.0065C370.803 93.6621 370.15 91.1526 370.228 88.4858C370.242 87.9861 370.365 87.4397 370.603 87.0052C371.665 85.0687 372.786 83.1653 373.888 81.2508C373.968 81.1122 374.065 80.9832 374.158 80.8516C376.336 77.7474 379.334 77.1603 382.542 79.2093C386.498 81.7365 388.05 87.2599 385.997 91.696C385.476 92.8199 384.778 93.863 384.16 94.9418C383.984 95.2487 383.799 95.551 383.575 95.9292C384.665 96.3349 385.629 96.0843 386.56 95.7509C388.051 95.218 389.151 94.1578 390.094 92.9344C392.834 89.3837 393.326 85.3755 392.222 81.1705C389.825 72.0381 379.619 68.2715 371.769 73.5574C368.55 75.7249 366.373 78.6885 365.176 82.3542C364.894 83.217 364.827 84.1627 364.753 85.0777C364.476 88.4772 364.24 91.8803 363.982 95.2818C363.66 99.5225 363.328 103.762 363.009 108.003C362.977 108.438 363.005 108.877 363.005 109.55C363.523 109.232 363.917 109.002 364.3 108.754C367.353 106.775 370.671 105.472 374.304 105.186C381.271 104.635 386.893 107.216 391.075 112.786C396.467 119.97 397.025 130.015 392.496 137.527C390.345 141.096 387.258 143.489 383.168 144.439C376.837 145.91 370.708 142.758 368.065 136.728C367.134 134.602 366.657 132.375 366.787 130.047C366.813 129.585 366.943 129.092 367.159 128.684C368.079 126.945 369.027 125.219 370.01 123.515C370.829 122.097 371.921 120.944 373.457 120.261C374.448 119.821 375.448 119.697 376.513 119.941C379.947 120.728 382.572 123.677 383.285 127.468C383.805 130.233 383.106 132.717 381.722 135.071C381.219 135.927 380.676 136.76 380.088 137.705C381.212 137.997 382.172 137.893 383.116 137.524C384.225 137.09 385.145 136.387 385.94 135.514C388.398 132.815 389.52 129.617 389.243 126.003C388.81 120.34 386.24 115.989 380.805 113.875C375.612 111.855 370.852 113.018 366.673 116.626C364.822 118.226 363.462 120.204 362.42 122.41C361.934 123.44 361.695 124.512 361.609 125.654C361.059 132.977 360.471 140.298 359.897 147.618C359.4 153.939 358.928 160.261 358.404 166.579C357.551 176.882 354.024 186.263 348.525 194.959C344.518 201.295 339.651 206.866 333.774 211.538C325.409 218.189 315.967 222.354 305.339 223.76C298.847 224.618 292.361 225.516 285.863 226.321C281.119 226.909 276.361 227.396 271.605 227.889C265.451 228.527 259.298 229.167 253.137 229.731C246.776 230.314 240.409 230.844 234.039 231.332C228.39 231.764 222.737 232.139 217.082 232.481C210.262 232.893 203.44 233.278 196.617 233.609C191.68 233.848 186.739 234.019 181.798 234.155C174.687 234.35 167.576 234.529 160.463 234.636C153.912 234.735 147.358 234.803 140.807 234.749C133.09 234.686 125.373 234.511 117.658 234.321C112.999 234.207 108.339 234.04 103.686 233.779C96.2236 233.362 88.7588 232.942 81.3092 232.346C73.8209 231.747 66.338 231.034 58.8728 230.191C46.5753 228.801 34.319 227.089 22.1667 224.72C12.6655 222.867 3.86072 219.236 -4.24562 213.968C-18.6345 204.617 -28.8885 191.831 -35.5763 176.111C-38.3088 169.688 -40.0551 162.988 -41.4314 156.161C-43.6515 145.146 -46.0103 134.159 -48.3083 123.16C-49.2848 118.486 -50.2568 113.81 -51.2243 109.133C-51.2882 108.826 -51.2952 108.507 -51.3425 108.064Z" fill="#C7C8D5"/>
<path d="M326.185 231.063C323.787 228.029 321.376 224.978 318.841 221.77C319.381 221.514 319.823 221.304 320.396 221.031C322.731 223.961 325.043 226.863 327.395 229.813C327.803 229.552 328.105 229.369 328.396 229.169C331.545 227.006 335.32 227.242 338.158 229.794C338.515 230.115 338.853 230.465 339.158 230.835C344.693 237.569 350.238 244.294 355.742 251.053C358.495 254.433 358.615 258.986 356.032 262.299C355.049 263.56 353.934 264.744 352.743 265.813C350.078 268.206 346.525 268.095 343.935 265.618C343.386 265.093 342.916 264.483 342.432 263.894C337.303 257.659 332.188 251.412 327.047 245.187C325.635 243.478 324.624 241.617 324.29 239.397C323.892 236.743 324.41 234.292 325.758 231.994C325.88 231.786 325.995 231.575 326.11 231.364C326.128 231.33 326.13 231.287 326.185 231.063Z" fill="#C7C8D5"/>
<path d="M195.995 183.193C196.075 182.462 196.136 181.796 196.225 181.134C196.943 175.767 197.589 170.388 198.413 165.037C199.203 159.907 201.65 155.681 205.838 152.52C208.426 150.566 211.439 149.786 214.576 149.361C215.273 149.266 215.815 149.634 216.034 150.347C216.174 150.797 216.215 151.293 216.216 151.768C216.226 159.997 216.224 168.227 216.223 176.456C216.222 178.134 215.958 179.74 214.889 181.111C213.819 182.486 212.463 183.297 210.668 183.293C206.126 183.284 201.585 183.292 197.043 183.287C196.732 183.286 196.42 183.232 195.995 183.193Z" fill="#C7C8D5"/>
<path d="M196.317 170.708C195.746 174.989 195.192 179.144 194.635 183.317H165.125C165.089 183.132 165.038 183.015 165.049 182.904C165.525 177.69 169.157 172.493 174.257 171.086C175.214 170.823 176.23 170.657 177.22 170.651C183.243 170.61 189.266 170.628 195.289 170.63C195.564 170.63 195.839 170.671 196.317 170.708Z" fill="#C7C8D5"/>
<path d="M269.107 158.968C268.754 158.563 268.486 158.281 268.246 157.978C255.651 142.09 243.058 126.199 230.464 110.31C226.125 104.835 221.78 99.3653 217.438 93.8921C217.214 93.6094 216.969 93.3357 216.789 93.0263C216.491 92.512 216.612 91.9023 217.041 91.6392C217.567 91.3162 217.857 91.6949 218.137 92.047C220.037 94.434 221.936 96.8226 223.833 99.2136C233.089 110.884 242.344 122.555 251.598 134.228C257.284 141.401 262.942 148.598 268.681 155.729C269.522 156.774 269.476 157.697 269.107 158.968Z" fill="#C7C8D5"/>
<path d="M290.433 183.223C289.157 183.531 288.36 183.42 287.609 182.443C284.627 178.565 281.594 174.722 278.483 170.944C277.574 169.84 277.289 168.746 277.567 167.424C277.61 167.402 277.642 167.378 277.677 167.37C277.712 167.362 277.767 167.355 277.786 167.374C277.979 167.575 278.182 167.77 278.355 167.989C282.341 173.012 286.323 178.038 290.433 183.223Z" fill="#C7C8D5"/>
<path d="M104.113 0.724609V13.9598H4.63776V137.705H104.113V184.628H117.88V137.705H262.53V184.628H276.297V137.705H380.089V13.9598H276.297V0.724609H262.53V13.9598H117.88V0.724609H104.113Z" fill="#C7C8D5"/>
</svg>
